<svg width="55" height="55" viewBox="0 0 55 55" fill="none" xmlns="http://www.w3.org/2000/svg">
<g id="Facebook svg" clip-path="url(#clip0_122_68)">
<g id="g10">
<g id="g12">
<path id="path14" d="M55 27.5001C55 12.3123 42.6878 9.15527e-05 27.5 9.15527e-05C12.3122 9.15527e-05 0 12.3123 0 27.5001C0 41.2261 10.0564 52.603 23.2031 54.666V35.4493H16.2207V27.5001H23.2031V21.4415C23.2031 14.5493 27.3087 10.7423 33.5903 10.7423C36.599 10.7423 39.7461 11.2794 39.7461 11.2794V18.047H36.2784C32.8622 18.047 31.7969 20.1668 31.7969 22.3415V27.5001H39.4238L38.2046 35.4493H31.7969V54.666C44.9436 52.603 55 41.2261 55 27.5001Z" fill="white"/>
</g>
</g>
</g>
<defs>
<clipPath id="clip0_122_68">
<rect width="55" height="55" fill="white"/>
</clipPath>
</defs>
</svg>
