<svg width="55" height="55" viewBox="0 0 55 55" fill="none" xmlns="http://www.w3.org/2000/svg">
<g clip-path="url(#clip0_122_57)">
<path d="M16.1106 0.192573C13.1846 0.330623 11.1864 0.797573 9.43965 1.48397C7.6318 2.18852 6.0995 3.13397 4.5749 4.66407C3.0503 6.19417 2.11145 7.72757 1.41185 9.53817C0.734799 11.2888 0.276099 13.2886 0.146849 16.2163C0.0175988 19.1439 -0.0110012 20.085 0.00329881 27.5529C0.0175988 35.0208 0.0505988 35.9569 0.192499 38.8906C0.332199 41.816 0.797499 43.8136 1.4839 45.561C2.18955 47.3688 3.1339 48.9006 4.66455 50.4257C6.1952 51.9509 7.7275 52.8875 9.5425 53.5882C11.2915 54.2642 13.2919 54.7251 16.219 54.8532C19.146 54.9814 20.0882 55.0111 27.5539 54.9968C35.0196 54.9825 35.9595 54.9495 38.8927 54.8103C41.8258 54.6712 43.813 54.2026 45.5609 53.5195C47.3687 52.8122 48.9016 51.8695 50.4256 50.3383C51.9497 48.8071 52.888 47.2726 53.587 45.4609C54.2646 43.7119 54.725 41.7115 54.852 38.7866C54.9802 35.8513 55.0104 34.9141 54.9961 27.4473C54.9818 19.9805 54.9483 19.0444 54.8092 16.1118C54.67 13.1792 54.2041 11.1876 53.5183 9.43917C52.8115 7.63132 51.8683 6.10067 50.3382 4.57442C48.8081 3.04817 47.2725 2.11042 45.4613 1.41302C43.7112 0.735973 41.712 0.274523 38.7849 0.148023C35.8578 0.0215226 34.9156 -0.0109274 27.4472 0.00337257C19.9788 0.0176726 19.0438 0.0495726 16.1106 0.192573ZM16.4318 49.906C13.7506 49.7894 12.2947 49.3439 11.3245 48.971C10.0397 48.476 9.1245 47.8776 8.1576 46.92C7.1907 45.9625 6.5967 45.044 6.0951 43.7619C5.71835 42.7917 5.2646 41.3375 5.1392 38.6563C5.0028 35.7583 4.9742 34.8882 4.95825 27.5463C4.9423 20.2043 4.97035 19.3353 5.0974 16.4363C5.2118 13.7572 5.66005 12.2997 6.0324 11.3301C6.5274 10.0436 7.1236 9.13007 8.08335 8.16372C9.0431 7.19737 9.95885 6.60227 11.242 6.10067C12.2111 5.72227 13.6653 5.27237 16.3454 5.14477C19.2456 5.00727 20.1146 4.97977 27.4555 4.96382C34.7963 4.94787 35.6675 4.97537 38.5687 5.10297C41.2478 5.21957 42.7058 5.66342 43.6744 6.03797C44.9597 6.53297 45.8744 7.12752 46.8407 8.08892C47.8071 9.05032 48.4027 9.96277 48.9043 11.2487C49.2833 12.215 49.7332 13.6687 49.8597 16.3505C49.9977 19.2506 50.0291 20.1202 50.0423 27.4605C50.0555 34.8008 50.0296 35.6725 49.9026 38.5705C49.7854 41.2517 49.341 42.7081 48.9676 43.6794C48.4726 44.9637 47.8758 45.8794 46.9155 46.8452C45.9552 47.811 45.0406 48.4061 43.7569 48.9077C42.7889 49.2856 41.333 49.7366 38.6551 49.8642C35.7549 50.0006 34.8859 50.0292 27.5423 50.0451C20.1987 50.0611 19.3325 50.0314 16.4323 49.906M38.8503 12.8024C38.8514 13.4551 39.0461 14.0929 39.4096 14.635C39.7732 15.1771 40.2894 15.5992 40.8928 15.8479C41.4963 16.0967 42.16 16.1608 42.7999 16.0323C43.4399 15.9039 44.0274 15.5885 44.4881 15.1261C44.9488 14.6637 45.262 14.0751 45.3881 13.4346C45.5143 12.7942 45.4477 12.1308 45.1967 11.5282C44.9458 10.9257 44.5218 10.4111 43.9784 10.0495C43.4349 9.68791 42.7965 9.49562 42.1437 9.49692C41.2687 9.49867 40.4302 9.84788 39.8126 10.4677C39.195 11.0876 38.8489 11.9274 38.8503 12.8024ZM13.3798 27.5276C13.3952 35.3266 19.729 41.6345 27.5264 41.6197C35.3237 41.6048 41.6361 35.2716 41.6212 27.4726C41.6064 19.6736 35.271 13.364 27.4725 13.3794C19.674 13.3948 13.365 19.7297 13.3798 27.5276ZM18.3331 27.5177C18.3296 25.7046 18.8637 23.9313 19.868 22.4218C20.8722 20.9123 22.3016 19.7346 23.9752 19.0374C25.6489 18.3403 27.4917 18.1551 29.2705 18.5053C31.0494 18.8555 32.6845 19.7253 33.9691 21.0048C35.2536 22.2842 36.1299 23.9159 36.4871 25.6934C36.8444 27.4709 36.6665 29.3144 35.976 30.9908C35.2855 32.6672 34.1134 34.1011 32.6079 35.1114C31.1024 36.1216 29.3312 36.6628 27.5181 36.6664C26.3143 36.6689 25.1217 36.4343 24.0086 35.9758C22.8954 35.5174 21.8835 34.8442 21.0306 33.9946C20.1776 33.1451 19.5004 32.1358 19.0376 31.0245C18.5748 29.9131 18.3354 28.7215 18.3331 27.5177Z" fill="white"/>
</g>
<defs>
<clipPath id="clip0_122_57">
<rect width="55" height="55" fill="white"/>
</clipPath>
</defs>
</svg>
