<svg width="55" height="55" viewBox="0 0 55 55" fill="none" xmlns="http://www.w3.org/2000/svg">
<g id="Spotify svg" clip-path="url(#clip0_122_64)">
<g id="g10">
<g id="g12">
<path id="path14" d="M43.522 24.4265C34.7912 19.2415 20.3899 18.7648 12.0553 21.2944C10.7168 21.7006 9.30139 20.9447 8.89597 19.6067C8.49028 18.2673 9.24505 16.853 10.5845 16.4461C20.1521 13.542 36.0568 14.1028 46.1078 20.0692C47.3116 20.784 47.7066 22.3387 46.9931 23.5406C46.2789 24.7443 44.7229 25.1412 43.522 24.4265ZM43.2361 32.1061C42.6235 33.1001 41.3239 33.4119 40.3313 32.8015C33.0524 28.3273 21.9532 27.0311 13.3418 29.6451C12.2251 29.9826 11.0455 29.3529 10.7063 28.2383C10.3699 27.1216 10.9998 25.9442 12.1145 25.6046C21.9518 22.6195 34.1812 24.0654 42.5413 29.2029C43.5339 29.8143 43.8464 31.1145 43.2361 32.1061ZM39.9218 39.4814C39.4351 40.2797 38.3959 40.5297 37.6005 40.0432C31.2401 36.1559 23.2345 35.278 13.8063 37.4314C12.8978 37.6398 11.9923 37.0705 11.7851 36.162C11.577 35.2538 12.1442 34.3482 13.0548 34.1409C23.3722 31.7822 32.2225 32.7973 39.3616 37.1598C40.1576 37.6459 40.4083 38.6858 39.9218 39.4814ZM27.5001 0.414742C12.5414 0.414742 0.414658 12.5413 0.414658 27.4997C0.414658 42.4599 12.5414 54.5854 27.5001 54.5854C42.4592 54.5854 54.5854 42.4599 54.5854 27.4997C54.5854 12.5413 42.4592 0.414742 27.5001 0.414742Z" fill="white"/>
</g>
</g>
</g>
<defs>
<clipPath id="clip0_122_64">
<rect width="55" height="55" fill="white"/>
</clipPath>
</defs>
</svg>
