<svg width="55" height="55" viewBox="0 0 55 55" fill="none" xmlns="http://www.w3.org/2000/svg">
<g id="TikTok svg">
<g clip-path="url(#clip0_122_72)">
<g id="Layer_1-2">
<g id="Group">
<path id="Vector" d="M55 0H0V55H55V0Z" fill="white"/>
<g id="Group_2">
<path id="Vector_2" d="M23.815 23.1277V21.6317C23.3021 21.5616 22.781 21.5176 22.2489 21.5176C15.8414 21.5176 10.6288 26.7302 10.6288 33.1377C10.6288 37.0688 12.5936 40.5476 15.5898 42.6513C13.6551 40.5751 12.4685 37.7935 12.4685 34.7396C12.4685 28.4242 17.534 23.2735 23.815 23.1263V23.1277Z" fill="#25F4EE"/>
<path id="Vector_3" d="M24.0886 40.0483C26.9473 40.0483 29.2793 37.7741 29.3851 34.9416L29.3948 9.64021H34.0175C33.9213 9.12046 33.869 8.58558 33.869 8.03833H27.555L27.5454 33.3397C27.4395 36.1736 25.1075 38.4465 22.2489 38.4465C21.3606 38.4465 20.5233 38.2237 19.7876 37.8373C20.7529 39.1738 22.319 40.0497 24.09 40.0497L24.0886 40.0483Z" fill="#25F4EE"/>
<path id="Vector_4" d="M42.6525 18.2271V16.8204C40.8897 16.8204 39.2466 16.2966 37.8689 15.3987C39.0954 16.8067 40.7619 17.8228 42.6525 18.2271Z" fill="#25F4EE"/>
<path id="Vector_5" d="M37.8689 15.3986C36.5255 13.8559 35.7088 11.8415 35.7088 9.64014H34.0175C34.463 12.045 35.8903 14.1089 37.8689 15.3986Z" fill="#FE2C55"/>
<path id="Vector_6" d="M22.2489 27.8315C19.3229 27.8315 16.9414 30.2116 16.9414 33.139C16.9414 35.1768 18.0978 36.9478 19.7863 37.836C19.1565 36.9643 18.7811 35.8959 18.7811 34.7409C18.7811 31.8149 21.1626 29.4334 24.0886 29.4334C24.6345 29.4334 25.1584 29.5241 25.6548 29.6781V23.2335C25.1419 23.1634 24.6208 23.1194 24.0886 23.1194C23.9965 23.1194 23.9058 23.1249 23.8136 23.1263V28.0763C23.3186 27.9209 22.7934 27.8315 22.2475 27.8315H22.2489Z" fill="#FE2C55"/>
<path id="Vector_7" d="M42.6525 18.2271V23.1344C39.3786 23.1344 36.3454 22.0867 33.869 20.3102V33.1403C33.869 39.5478 28.6564 44.7604 22.2489 44.7604C19.7725 44.7604 17.4763 43.9794 15.5898 42.6539C17.7128 44.9323 20.7364 46.3623 24.09 46.3623C30.4975 46.3623 35.7101 41.1497 35.7101 34.7422V21.9121C38.1865 23.6899 41.2198 24.7363 44.4936 24.7363V18.4223C43.8625 18.4223 43.2465 18.3536 42.6539 18.2271H42.6525Z" fill="#FE2C55"/>
<path id="Vector_8" d="M33.869 33.139V20.3089C36.3454 22.0868 39.3786 23.1332 42.6525 23.1332V18.2258C40.7619 17.8215 39.0954 16.8054 37.8689 15.3974C35.8903 14.1077 34.463 12.0438 34.0175 9.63892H29.3948L29.3851 34.9403C29.2793 37.7742 26.9473 40.047 24.0886 40.047C22.3176 40.047 20.7515 39.1725 19.7863 37.8347C18.0964 36.945 16.9414 35.1754 16.9414 33.1377C16.9414 30.2117 19.3229 27.8302 22.2489 27.8302C22.7948 27.8302 23.3186 27.9209 23.815 28.0749V23.1249C17.534 23.272 12.4685 28.4228 12.4685 34.7382C12.4685 37.7934 13.6551 40.5737 15.5898 42.6499C17.4776 43.9754 19.7725 44.7564 22.2489 44.7564C28.6564 44.7564 33.869 39.5438 33.869 33.1363V33.139Z" fill="black"/>
</g>
</g>
</g>
</g>
</g>
<defs>
<clipPath id="clip0_122_72">
<rect width="55" height="55" rx="27.5" fill="white"/>
</clipPath>
</defs>
</svg>
