<svg width="55" height="46" viewBox="0 0 55 46" fill="none" xmlns="http://www.w3.org/2000/svg">
<g clip-path="url(#clip0_122_54)">
<path d="M49.2228 11.5235C49.256 12.011 49.2561 12.4986 49.2561 12.9906C49.2561 27.9831 37.9899 45.2739 17.3893 45.2739V45.2649C11.3038 45.2739 5.34476 43.508 0.221771 40.1783C1.10665 40.2862 1.99597 40.3401 2.8875 40.3423C7.93064 40.3468 12.8296 38.6326 16.7972 35.4759C12.0046 35.3838 7.80201 32.2181 6.33387 27.5966C8.0127 27.9246 9.74254 27.8572 11.3903 27.4011C6.16532 26.3317 2.40625 21.681 2.40625 16.2798C2.40625 16.2304 2.40625 16.1832 2.40625 16.136C3.9631 17.0145 5.70625 17.502 7.48931 17.556C2.56814 14.2241 1.05121 7.59171 4.02298 2.40626C9.70927 9.49469 18.099 13.8039 27.1052 14.26C26.2026 10.3192 27.4357 6.18975 30.3454 3.41953C34.8563 -0.87622 41.9508 -0.65604 46.1911 3.91157C48.6994 3.41054 51.1034 2.47815 53.3034 1.15707C52.4673 3.7835 50.7175 6.01451 48.38 7.4322C50.6 7.16708 52.769 6.56496 54.8115 5.64604C53.3079 7.92872 51.4139 9.91708 49.2228 11.5235Z" fill="white"/>
</g>
<defs>
<clipPath id="clip0_122_54">
<rect width="55" height="45.8333" fill="white"/>
</clipPath>
</defs>
</svg>
