<svg width="55" height="39" viewBox="0 0 55 39" fill="none" xmlns="http://www.w3.org/2000/svg">
<g id="YouTube svg" clip-path="url(#clip0_122_59)">
<g id="g10">
<g id="g12">
<path id="path14" d="M53.8506 6.0119C53.2181 3.64539 51.3547 1.78187 48.9881 1.14942C44.6991 3.8147e-06 27.5 3.8147e-06 27.5 3.8147e-06C27.5 3.8147e-06 10.301 3.8147e-06 6.01184 1.14942C3.6455 1.78187 1.78174 3.64539 1.14929 6.0119C0 10.301 0 19.25 0 19.25C0 19.25 0 28.1989 1.14929 32.4884C1.78174 34.8546 3.6455 36.7181 6.01184 37.3508C10.301 38.5 27.5 38.5 27.5 38.5C27.5 38.5 44.6991 38.5 48.9881 37.3508C51.3547 36.7181 53.2181 34.8546 53.8506 32.4884C55 28.1989 55 19.25 55 19.25C55 19.25 55 10.301 53.8506 6.0119Z" fill="white"/>
<path id="path16" d="M21.875 27.375L36.25 19.2504L21.875 11.1251V27.375Z" fill="black"/>
</g>
</g>
</g>
<defs>
<clipPath id="clip0_122_59">
<rect width="55" height="38.5" fill="white"/>
</clipPath>
</defs>
</svg>
