<svg width="41" height="33" viewBox="0 0 41 33" fill="none" xmlns="http://www.w3.org/2000/svg">
<path fill-rule="evenodd" clip-rule="evenodd" d="M0.916748 6.70834C0.916748 5.15019 1.53572 3.65586 2.6375 2.55408C3.73927 1.45231 5.2336 0.833336 6.79175 0.833336H34.2084C35.7666 0.833336 37.2609 1.45231 38.3627 2.55408C39.4644 3.65586 40.0834 5.15019 40.0834 6.70834V8.66667H0.916748V6.70834ZM0.916748 12.5833V26.2917C0.916748 27.8498 1.53572 29.3441 2.6375 30.4459C3.73927 31.5477 5.2336 32.1667 6.79175 32.1667H34.2084C35.7666 32.1667 37.2609 31.5477 38.3627 30.4459C39.4644 29.3441 40.0834 27.8498 40.0834 26.2917V12.5833H0.916748ZM10.7084 16.5C10.189 16.5 9.69092 16.7063 9.32366 17.0736C8.95641 17.4408 8.75008 17.939 8.75008 18.4583C8.75008 18.9777 8.95641 19.4758 9.32366 19.8431C9.69092 20.2103 10.189 20.4167 10.7084 20.4167H20.5001C21.0195 20.4167 21.5176 20.2103 21.8848 19.8431C22.2521 19.4758 22.4584 18.9777 22.4584 18.4583C22.4584 17.939 22.2521 17.4408 21.8848 17.0736C21.5176 16.7063 21.0195 16.5 20.5001 16.5H10.7084Z" fill="white"/>
</svg>
