<svg width="47" height="23" viewBox="0 0 47 23" fill="none" xmlns="http://www.w3.org/2000/svg">
<g clip-path="url(#clip0_363_80)">
<path d="M22.2076 11.5737V17.0375H20.4451V3.52499H25.0276C26.1438 3.52499 27.2013 3.93624 28.0238 4.69999C28.8463 5.40499 29.2576 6.46249 29.2576 7.57874C29.2576 8.69499 28.8463 9.69374 28.0238 10.4575C27.2013 11.2212 26.2026 11.6325 25.0276 11.6325L22.2076 11.5737ZM22.2076 5.16999V9.86999H25.1451C25.7913 9.86999 26.4376 9.63499 26.8488 9.16499C27.7888 8.28374 27.7888 6.81499 26.9076 5.93374L26.8488 5.87499C26.3788 5.40499 25.7913 5.11124 25.1451 5.16999H22.2076Z" fill="white"/>
<path d="M33.3113 7.51999C34.6038 7.51999 35.6026 7.87249 36.3663 8.57749C37.1301 9.28249 37.4826 10.2225 37.4826 11.3975V17.0375H35.8376V15.745H35.7788C35.0738 16.8025 34.0751 17.3312 32.9001 17.3312C31.9013 17.3312 31.0201 17.0375 30.3151 16.45C29.6688 15.8625 29.2576 15.04 29.2576 14.1587C29.2576 13.2187 29.6101 12.455 30.3151 11.8675C31.0201 11.28 32.0188 11.045 33.1938 11.045C34.2513 11.045 35.0738 11.2212 35.7201 11.6325V11.2212C35.7201 10.6337 35.4851 10.0462 35.0151 9.69374C34.5451 9.28249 33.9576 9.04749 33.3113 9.04749C32.3126 9.04749 31.5488 9.45874 31.0201 10.2812L29.4926 9.34124C30.4326 8.10749 31.6663 7.51999 33.3113 7.51999ZM31.0788 14.2175C31.0788 14.6875 31.3138 15.0987 31.6663 15.3337C32.0776 15.6275 32.5476 15.8037 33.0176 15.8037C33.7226 15.8037 34.4276 15.51 34.9563 14.9812C35.5438 14.4525 35.8376 13.8062 35.8376 13.1012C35.3088 12.69 34.5451 12.455 33.5463 12.455C32.8413 12.455 32.2538 12.6312 31.7838 12.9837C31.3138 13.2775 31.0788 13.6887 31.0788 14.2175Z" fill="white"/>
<path d="M47.0001 7.81375L41.1839 21.15H39.4214L41.5951 16.5088L37.7764 7.8725H39.6564L42.4176 14.5113H42.4764L45.1789 7.8725H47.0001V7.81375Z" fill="white"/>
<path d="M15.2161 10.3988C15.2161 9.87 15.1574 9.34125 15.0986 8.8125H7.75488V11.8088H11.9261C11.7499 12.7487 11.2211 13.63 10.3986 14.1588V16.0975H12.9249C14.3936 14.7462 15.2161 12.7488 15.2161 10.3988Z" fill="#4285F4"/>
<path d="M7.75501 17.9775C9.87001 17.9775 11.6325 17.2725 12.925 16.0975L10.3988 14.1588C9.69376 14.6288 8.81251 14.9225 7.75501 14.9225C5.75751 14.9225 3.99501 13.5713 3.40751 11.6913H0.82251V13.6888C2.17376 16.3325 4.81751 17.9775 7.75501 17.9775Z" fill="#34A853"/>
<path d="M3.40754 11.6913C3.05504 10.7513 3.05504 9.69376 3.40754 8.69501V6.69751H0.822539C-0.293711 8.87126 -0.293711 11.4563 0.822539 13.6888L3.40754 11.6913Z" fill="#FBBC04"/>
<path d="M7.7551 5.52249C8.87135 5.52249 9.92885 5.93374 10.7513 6.69749L12.9838 4.46499C11.5738 3.17249 9.69385 2.40874 7.81385 2.46749C4.87635 2.46749 2.17385 4.11249 0.881348 6.75624L3.46635 8.75374C3.9951 6.87374 5.7576 5.52249 7.7551 5.52249Z" fill="#EA4335"/>
</g>
<defs>
<clipPath id="clip0_363_80">
<rect width="47" height="22.3837" fill="white"/>
</clipPath>
</defs>
</svg>
