<svg width="47" height="47" viewBox="0 0 47 47" fill="none" xmlns="http://www.w3.org/2000/svg">
<path d="M37.1808 13.5321C37.2856 8.08302 32.7893 3.90002 26.6068 3.90002H13.8209C13.5228 3.90012 13.2346 4.00659 13.0081 4.20027C12.7815 4.39396 12.6316 4.66214 12.5852 4.95654L7.46119 36.9714C7.43826 37.1164 7.44705 37.2648 7.48695 37.4061C7.52684 37.5474 7.59689 37.6785 7.69228 37.7901C7.78767 37.9018 7.90612 37.9915 8.03949 38.053C8.17286 38.1145 8.31797 38.1463 8.46483 38.1464H16.0406L14.8559 45.5606C14.8329 45.7058 14.8417 45.8542 14.8817 45.9956C14.9216 46.137 14.9918 46.2681 15.0873 46.3797C15.1828 46.4914 15.3013 46.5811 15.4348 46.6425C15.5683 46.704 15.7135 46.7357 15.8605 46.7356H22.0312C22.3298 46.7356 22.5952 46.6279 22.8214 46.435C23.0476 46.2411 23.0848 45.9738 23.1308 45.6791L24.9422 35.0209C24.9883 34.7271 25.1381 34.3453 25.3652 34.1514C25.5914 33.9575 25.7892 33.8518 26.0869 33.8508H29.8645C35.9187 33.8508 41.0564 29.5483 41.9954 23.5627C42.6593 19.3131 40.8371 15.4483 37.1808 13.5321Z" fill="#001C64"/>
<path d="M17.6798 26.3396L15.7929 38.305L14.6082 45.8093C14.5852 45.9545 14.594 46.1029 14.634 46.2443C14.6739 46.3857 14.7441 46.5168 14.8396 46.6284C14.9351 46.7401 15.0536 46.8298 15.1871 46.8912C15.3206 46.9527 15.4658 46.9844 15.6128 46.9843H22.1438C22.4417 46.984 22.7297 46.8774 22.956 46.6838C23.1823 46.4901 23.3322 46.222 23.3786 45.9278L25.0999 35.0199C25.1463 34.7257 25.2962 34.4578 25.5225 34.2643C25.7489 34.0708 26.0369 33.9644 26.3347 33.9643H30.1798C36.234 33.9643 41.3707 29.5483 42.3098 23.5627C42.9756 19.3141 40.8371 15.4493 37.1809 13.5321C37.1711 13.9844 37.1319 14.4358 37.0624 14.8833C36.1234 20.868 30.9857 25.285 24.9315 25.285H18.9145C18.6169 25.2851 18.329 25.3913 18.1027 25.5846C17.8764 25.7779 17.7264 26.0456 17.6798 26.3396Z" fill="#0070E0"/>
<path d="M15.7921 38.305H8.19376C8.04684 38.3051 7.90165 38.2734 7.7682 38.2119C7.63475 38.1505 7.51623 38.0608 7.42081 37.9491C7.32539 37.8374 7.25534 37.7063 7.21552 37.5649C7.17569 37.4235 7.16702 37.2751 7.19011 37.13L12.3131 4.63928C12.3595 4.34497 12.5095 4.07691 12.7361 3.88338C12.9627 3.68986 13.2509 3.5836 13.5488 3.58374H26.608C32.7894 3.58374 37.2858 8.08301 37.181 13.5321C35.6427 12.7252 33.8352 12.2641 31.8543 12.2641H20.967C20.6693 12.2643 20.3814 12.3708 20.1551 12.5642C19.9288 12.7577 19.7789 13.0255 19.7323 13.3196L17.6809 26.3396L15.7921 38.305Z" fill="#003087"/>
</svg>
