<svg width="40" height="40" viewBox="0 0 40 40" fill="none" xmlns="http://www.w3.org/2000/svg">
<path d="M6.6665 17.3333V16H5.33317V17.3333H6.6665ZM17.3332 17.3333V16H15.9998V17.3333H17.3332ZM17.3332 28H15.9998V29.3333H17.3332V28ZM35.9998 9.33333H37.3332V8.78133L36.9438 8.38933L35.9998 9.33333ZM27.9998 1.33333L28.9438 0.389333L28.5518 0H27.9998V1.33333ZM6.6665 18.6667H9.33317V16H6.6665V18.6667ZM7.99984 29.3333V22.6667H5.33317V29.3333H7.99984ZM7.99984 22.6667V17.3333H5.33317V22.6667H7.99984ZM9.33317 21.3333H6.6665V24H9.33317V21.3333ZM10.6665 20C10.6665 20.3536 10.526 20.6928 10.276 20.9428C10.0259 21.1929 9.68679 21.3333 9.33317 21.3333V24C10.394 24 11.4115 23.5786 12.1616 22.8284C12.9117 22.0783 13.3332 21.0609 13.3332 20H10.6665ZM9.33317 18.6667C9.68679 18.6667 10.0259 18.8071 10.276 19.0572C10.526 19.3072 10.6665 19.6464 10.6665 20H13.3332C13.3332 18.9391 12.9117 17.9217 12.1616 17.1716C11.4115 16.4214 10.394 16 9.33317 16V18.6667ZM15.9998 17.3333V28H18.6665V17.3333H15.9998ZM17.3332 29.3333H19.9998V26.6667H17.3332V29.3333ZM23.9998 25.3333V20H21.3332V25.3333H23.9998ZM19.9998 16H17.3332V18.6667H19.9998V16ZM23.9998 20C23.9998 18.9391 23.5784 17.9217 22.8283 17.1716C22.0781 16.4214 21.0607 16 19.9998 16V18.6667C20.3535 18.6667 20.6926 18.8071 20.9426 19.0572C21.1927 19.3072 21.3332 19.6464 21.3332 20H23.9998ZM19.9998 29.3333C21.0607 29.3333 22.0781 28.9119 22.8283 28.1618C23.5784 27.4116 23.9998 26.3942 23.9998 25.3333H21.3332C21.3332 25.687 21.1927 26.0261 20.9426 26.2761C20.6926 26.5262 20.3535 26.6667 19.9998 26.6667V29.3333ZM26.6665 16V29.3333H29.3332V16H26.6665ZM27.9998 18.6667H34.6665V16H27.9998V18.6667ZM27.9998 24H31.9998V21.3333H27.9998V24ZM5.33317 13.3333V4H2.6665V13.3333H5.33317ZM34.6665 9.33333V13.3333H37.3332V9.33333H34.6665ZM6.6665 2.66667H27.9998V0H6.6665V2.66667ZM27.0558 2.27733L35.0558 10.2773L36.9438 8.38933L28.9438 0.389333L27.0558 2.27733ZM5.33317 4C5.33317 3.64638 5.47365 3.30724 5.7237 3.05719C5.97374 2.80714 6.31288 2.66667 6.6665 2.66667V0C5.60564 0 4.58822 0.421427 3.83808 1.17157C3.08793 1.92172 2.6665 2.93913 2.6665 4H5.33317ZM2.6665 32V36H5.33317V32H2.6665ZM6.6665 40H33.3332V37.3333H6.6665V40ZM37.3332 36V32H34.6665V36H37.3332ZM33.3332 40C34.394 40 35.4115 39.5786 36.1616 38.8284C36.9117 38.0783 37.3332 37.0609 37.3332 36H34.6665C34.6665 36.3536 34.526 36.6928 34.276 36.9428C34.0259 37.1929 33.6868 37.3333 33.3332 37.3333V40ZM2.6665 36C2.6665 37.0609 3.08793 38.0783 3.83808 38.8284C4.58822 39.5786 5.60564 40 6.6665 40V37.3333C6.31288 37.3333 5.97374 37.1929 5.7237 36.9428C5.47365 36.6928 5.33317 36.3536 5.33317 36H2.6665Z" fill="white"/>
</svg>
