<svg width="47" height="45" viewBox="0 0 47 45" fill="none" xmlns="http://www.w3.org/2000/svg">
<path d="M36.6535 34.1135C34.8095 34.1135 33.0752 33.4348 31.7712 32.2029L24.7218 25.5393C24.2268 25.0702 23.3642 25.0716 22.8694 25.5393L15.7942 32.2272C14.4902 33.4592 12.7559 34.1378 10.9119 34.1378H9.52271L18.4511 42.577C21.2394 45.2126 25.7603 45.2126 28.5488 42.577L37.5026 34.1135H36.6535Z" fill="#32BCAD"/>
<path d="M10.912 10.5438C12.756 10.5438 14.4903 11.2225 15.7943 12.4544L22.8695 19.1433C23.379 19.6252 24.211 19.627 24.7218 19.1428L31.7713 12.4788C33.0753 11.2468 34.8096 10.5682 36.6535 10.5682H37.5026L28.5491 2.10481C25.7604 -0.53095 21.2395 -0.53095 18.4512 2.10481L9.52319 10.5438L10.912 10.5438Z" fill="#32BCAD"/>
<path d="M44.9088 17.5685L39.498 12.4541C39.3789 12.4992 39.2499 12.5274 39.1137 12.5274H36.6535C35.3817 12.5274 34.1366 13.015 33.2379 13.8651L26.1887 20.5285C25.529 21.152 24.6621 21.464 23.7961 21.464C22.9293 21.464 22.0631 21.152 21.4036 20.5291L14.3277 13.8407C13.429 12.9904 12.1839 12.503 10.9121 12.503H7.88708C7.75806 12.503 7.63749 12.4743 7.52367 12.4337L2.09136 17.5685C-0.697121 20.2043 -0.697121 24.4774 2.09136 27.1132L7.52345 32.2478C7.63748 32.2073 7.75806 32.1785 7.88708 32.1785H10.9121C12.1839 32.1785 13.429 31.6911 14.3277 30.841L21.4029 24.1533C22.6818 22.9455 24.9111 22.9451 26.1887 24.1538L33.2379 30.8166C34.1366 31.6667 35.3817 32.1543 36.6535 32.1543H39.1137C39.2499 32.1543 39.3789 32.1825 39.498 32.2276L44.9088 27.1132C47.6971 24.4774 47.6971 20.2043 44.9088 17.5685Z" fill="#32BCAD"/>
</svg>
