<svg width="300" height="370" viewBox="0 0 300 370" fill="none" xmlns="http://www.w3.org/2000/svg">
<path fill-rule="evenodd" clip-rule="evenodd" d="M42 32H50V153V161V282H42V161V153V32ZM65.7656 32V153H73.7656V32H81.7656V153V161V282H73.7656V161H65.7656V282H58.0156V161V153V32H65.7656ZM113.602 136L111.268 133.5L113.602 131V32H105.852V130H97.8516V32H89.8516V153V161V282H97.8516V184H105.852V282H113.602V183L111.268 180.5L113.602 178V161V153V136ZM105.852 153V137H97.8516V153V161V177H105.852V161V153ZM121.688 32H129.688V153V161V282H121.688V161V153V32ZM145.703 153V40H153.703V131.5H148.703V137.5H161.703V32H137.703V153V161V282H161.703V176.5H148.703V182.5H153.703V274H145.703V161H161.703V153H145.703ZM177.734 59.5V153H185.734V59.5H177.734ZM193.484 153V32H185.734V51.5H177.734V32H169.734V153V161V282H177.734V262.5H185.734V282H193.484V161V153ZM185.734 161H177.734V254.5H185.734V161ZM217.57 131.5V153V161V182.5L213.57 186.5L209.57 182.5V161V153V131.5L213.57 127.5L217.57 131.5ZM201.57 153V126.5L209.57 119.5V32H217.57V119.5L225.32 126.5V153V161V187.5L217.57 194.5V282H209.57V194.5L201.57 187.5V161V153ZM249.406 161H241.406V274H249.406V161ZM257.156 32V153V161V282H233.406V161V153V32H257.156ZM249.406 40H241.406V153H249.406V40Z" fill="white"/>
<rect x="4" y="4" width="292" height="362" stroke="white" stroke-width="8"/>
<path d="M47.0585 312.818V338.316C47.0585 339.076 46.7901 339.725 46.2533 340.262C45.7612 340.754 45.135 341 44.3745 341C43.614 341 42.9654 340.754 42.4286 340.262C41.9365 339.725 41.6905 339.076 41.6905 338.316V300.74C41.6905 297.967 42.6746 295.596 44.6429 293.627C46.6112 291.659 48.982 290.675 51.7555 290.675C54.529 290.675 56.8998 291.659 58.8681 293.627C59.4049 294.164 59.6733 294.813 59.6733 295.573C59.6733 296.289 59.4049 296.915 58.8681 297.452C58.3313 297.944 57.6827 298.19 56.9222 298.19C56.2065 298.19 55.6026 297.944 55.1105 297.452C54.1711 296.513 53.0528 296.043 51.7555 296.043C50.4582 296.043 49.3399 296.513 48.4005 297.452C47.5058 298.347 47.0585 299.443 47.0585 300.74V307.45H56.9893C57.7498 307.45 58.376 307.718 58.8681 308.255C59.4049 308.747 59.6733 309.374 59.6733 310.134C59.6733 310.894 59.4049 311.543 58.8681 312.08C58.376 312.572 57.7498 312.818 56.9893 312.818H47.0585ZM93.9184 326.909H68.7559C69.3822 329.459 70.7018 331.561 72.7148 333.216C74.7725 334.827 77.1434 335.632 79.8274 335.632C82.9587 335.632 85.6427 334.514 87.8794 332.277C88.4162 331.785 89.0425 331.539 89.7582 331.539C90.5187 331.539 91.1673 331.785 91.7041 332.277C92.1962 332.814 92.4422 333.462 92.4422 334.223C92.4422 334.939 92.1962 335.565 91.7041 336.102C88.3044 339.367 84.3455 341 79.8274 341C75.1751 341 71.2162 339.367 67.9507 336.102C64.6852 332.836 63.0524 328.877 63.0524 324.225C63.0524 319.573 64.6852 315.614 67.9507 312.348C71.2162 309.083 75.1751 307.45 79.8274 307.45C84.4797 307.45 88.4386 309.083 91.7041 312.348C94.9696 315.614 96.6024 319.573 96.6024 324.225C96.6024 324.985 96.334 325.634 95.7972 326.171C95.3051 326.663 94.6789 326.909 93.9184 326.909ZM68.7559 321.541H90.8989C90.2726 318.991 88.9306 316.911 86.8729 315.301C84.8152 313.646 82.4667 312.818 79.8274 312.818C77.1434 312.818 74.7725 313.646 72.7148 315.301C70.7018 316.911 69.3822 318.991 68.7559 321.541ZM119.086 341H104.66C103.899 341 103.251 340.754 102.714 340.262C102.222 339.725 101.976 339.076 101.976 338.316C101.976 337.556 102.222 336.929 102.714 336.437C103.251 335.9 103.899 335.632 104.66 335.632H119.086C120.294 335.632 121.323 335.207 122.173 334.357C123.023 333.507 123.448 332.478 123.448 331.27C123.448 330.063 123.023 329.034 122.173 328.184C121.323 327.334 120.294 326.909 119.086 326.909H111.705C109.021 326.909 106.717 325.97 104.794 324.091C102.915 322.167 101.976 319.863 101.976 317.179C101.976 314.495 102.915 312.214 104.794 310.335C106.717 308.412 109.021 307.45 111.705 307.45H122.173C122.933 307.45 123.559 307.718 124.052 308.255C124.588 308.747 124.857 309.374 124.857 310.134C124.857 310.894 124.588 311.543 124.052 312.08C123.559 312.572 122.933 312.818 122.173 312.818H111.705C110.497 312.818 109.468 313.243 108.619 314.093C107.769 314.943 107.344 315.972 107.344 317.179C107.344 318.387 107.769 319.416 108.619 320.266C109.468 321.116 110.497 321.541 111.705 321.541H119.086C121.77 321.541 124.052 322.503 125.93 324.426C127.854 326.305 128.816 328.586 128.816 331.27C128.816 333.954 127.854 336.258 125.93 338.182C124.052 340.061 121.77 341 119.086 341ZM141.549 312.818V330.935C141.549 332.232 141.996 333.351 142.891 334.29C143.83 335.185 144.949 335.632 146.246 335.632C147.543 335.632 148.662 335.162 149.601 334.223C150.093 333.731 150.697 333.485 151.413 333.485C152.173 333.485 152.822 333.731 153.359 334.223C153.895 334.76 154.164 335.408 154.164 336.169C154.164 336.885 153.895 337.511 153.359 338.048C151.39 340.016 149.019 341 146.246 341C143.472 341 141.102 340.016 139.133 338.048C137.165 336.079 136.181 333.708 136.181 330.935V296.714C136.181 295.954 136.427 295.327 136.919 294.835C137.456 294.298 138.104 294.03 138.865 294.03C139.625 294.03 140.252 294.298 140.744 294.835C141.281 295.327 141.549 295.954 141.549 296.714V307.45H148.93C149.69 307.45 150.317 307.718 150.809 308.255C151.346 308.747 151.614 309.374 151.614 310.134C151.614 310.894 151.346 311.543 150.809 312.08C150.317 312.572 149.69 312.818 148.93 312.818H141.549ZM165.396 294.902C165.978 295.484 166.268 296.2 166.268 297.049C166.268 297.899 165.978 298.615 165.396 299.197C164.815 299.778 164.099 300.069 163.249 300.069C162.399 300.069 161.683 299.778 161.102 299.197C160.52 298.615 160.229 297.899 160.229 297.049C160.229 296.2 160.52 295.484 161.102 294.902C161.683 294.321 162.399 294.03 163.249 294.03C164.099 294.03 164.815 294.321 165.396 294.902ZM160.565 338.316V310.134C160.565 309.374 160.811 308.747 161.303 308.255C161.84 307.718 162.488 307.45 163.249 307.45C164.009 307.45 164.636 307.718 165.128 308.255C165.665 308.747 165.933 309.374 165.933 310.134V338.316C165.933 339.076 165.665 339.725 165.128 340.262C164.636 340.754 164.009 341 163.249 341C162.488 341 161.84 340.754 161.303 340.262C160.811 339.725 160.565 339.076 160.565 338.316ZM186.779 339.524L172.688 311.342C172.33 310.671 172.263 310 172.486 309.329C172.755 308.613 173.224 308.076 173.895 307.718C174.566 307.361 175.237 307.316 175.908 307.584C176.624 307.808 177.161 308.255 177.519 308.926L189.194 332.344L200.87 308.926C201.227 308.255 201.742 307.808 202.413 307.584C203.129 307.316 203.822 307.361 204.493 307.718C205.164 308.121 205.611 308.658 205.835 309.329C206.103 310 206.059 310.671 205.701 311.342L191.61 339.524C191.162 340.508 190.357 341 189.194 341C188.031 341 187.226 340.508 186.779 339.524ZM238.933 338.316V336.504C235.802 339.501 231.999 341 227.526 341C222.874 341 218.915 339.367 215.649 336.102C212.384 332.836 210.751 328.877 210.751 324.225C210.751 319.573 212.384 315.614 215.649 312.348C218.915 309.083 222.874 307.45 227.526 307.45C232.178 307.45 236.137 309.083 239.403 312.348C242.668 315.614 244.301 319.573 244.301 324.225V338.316C244.301 339.076 244.033 339.725 243.496 340.262C243.004 340.754 242.378 341 241.617 341C240.857 341 240.208 340.754 239.671 340.262C239.179 339.725 238.933 339.076 238.933 338.316ZM219.474 332.277C221.711 334.514 224.395 335.632 227.526 335.632C230.657 335.632 233.341 334.514 235.578 332.277C237.815 330.04 238.933 327.356 238.933 324.225C238.933 321.094 237.815 318.41 235.578 316.173C233.341 313.936 230.657 312.818 227.526 312.818C224.395 312.818 221.711 313.936 219.474 316.173C217.237 318.41 216.119 321.094 216.119 324.225C216.119 327.356 217.237 330.04 219.474 332.277ZM257.074 293.359V338.316C257.074 339.076 256.805 339.725 256.268 340.262C255.776 340.754 255.15 341 254.39 341C253.629 341 252.981 340.754 252.444 340.262C251.952 339.725 251.706 339.076 251.706 338.316V293.359C251.706 292.599 251.952 291.972 252.444 291.48C252.981 290.943 253.629 290.675 254.39 290.675C255.15 290.675 255.776 290.943 256.268 291.48C256.805 291.972 257.074 292.599 257.074 293.359Z" fill="white"/>
</svg>
