<svg width="225" height="309" viewBox="0 0 225 309" fill="none" xmlns="http://www.w3.org/2000/svg">
<path fill-rule="evenodd" clip-rule="evenodd" d="M4 0H12V121V129V250H4V129V121V0ZM27.7656 0V121H35.7656V0H43.7656V121V129V250H35.7656V129H27.7656V250H20.0156V129V121V0H27.7656ZM75.6016 104L73.2676 101.5L75.6016 99V0H67.8516V98H59.8516V0H51.8516V121V129V250H59.8516V152H67.8516V250H75.6016V151L73.2676 148.5L75.6016 146V129V121V104ZM67.8516 121V105H59.8516V121V129V145H67.8516V129V121ZM83.6875 0H91.6875V121V129V250H83.6875V129V121V0ZM107.703 121V8H115.703V99.5H110.703V105.5H123.703V0H99.7031V121V129V250H123.703V144.5H110.703V150.5H115.703V242H107.703V129H123.703V121H107.703ZM139.734 27.5V121H147.734V27.5H139.734ZM155.484 121V0H147.734V19.5H139.734V0H131.734V121V129V250H139.734V230.5H147.734V250H155.484V129V121ZM147.734 129H139.734V222.5H147.734V129ZM179.57 99.5V121V129V150.5L175.57 154.5L171.57 150.5V129V121V99.5L175.57 95.5L179.57 99.5ZM163.57 121V94.5L171.57 87.5V0H179.57V87.5L187.32 94.5V121V129V155.5L179.57 162.5V250H171.57V162.5L163.57 155.5V129V121ZM211.406 129H203.406V242H211.406V129ZM219.156 0V121V129V250H195.406V129V121V0H219.156ZM211.406 8H203.406V121H211.406V8Z" fill="white"/>
<path d="M9.0585 280.818V306.316C9.0585 307.076 8.7901 307.725 8.2533 308.262C7.76123 308.754 7.13497 309 6.3745 309C5.61403 309 4.9654 308.754 4.4286 308.262C3.93653 307.725 3.6905 307.076 3.6905 306.316V268.74C3.6905 265.967 4.67463 263.596 6.6429 261.627C8.61117 259.659 10.982 258.675 13.7555 258.675C16.529 258.675 18.8998 259.659 20.8681 261.627C21.4049 262.164 21.6733 262.813 21.6733 263.573C21.6733 264.289 21.4049 264.915 20.8681 265.452C20.3313 265.944 19.6827 266.19 18.9222 266.19C18.2065 266.19 17.6026 265.944 17.1105 265.452C16.1711 264.513 15.0528 264.043 13.7555 264.043C12.4582 264.043 11.3399 264.513 10.4005 265.452C9.50583 266.347 9.0585 267.443 9.0585 268.74V275.45H18.9893C19.7498 275.45 20.376 275.718 20.8681 276.255C21.4049 276.747 21.6733 277.374 21.6733 278.134C21.6733 278.894 21.4049 279.543 20.8681 280.08C20.376 280.572 19.7498 280.818 18.9893 280.818H9.0585ZM55.9184 294.909H30.7559C31.3822 297.459 32.7018 299.561 34.7148 301.216C36.7725 302.827 39.1434 303.632 41.8274 303.632C44.9587 303.632 47.6427 302.514 49.8794 300.277C50.4162 299.785 51.0425 299.539 51.7582 299.539C52.5187 299.539 53.1673 299.785 53.7041 300.277C54.1962 300.814 54.4422 301.462 54.4422 302.223C54.4422 302.939 54.1962 303.565 53.7041 304.102C50.3044 307.367 46.3455 309 41.8274 309C37.1751 309 33.2162 307.367 29.9507 304.102C26.6852 300.836 25.0524 296.877 25.0524 292.225C25.0524 287.573 26.6852 283.614 29.9507 280.348C33.2162 277.083 37.1751 275.45 41.8274 275.45C46.4797 275.45 50.4386 277.083 53.7041 280.348C56.9696 283.614 58.6024 287.573 58.6024 292.225C58.6024 292.985 58.334 293.634 57.7972 294.171C57.3051 294.663 56.6789 294.909 55.9184 294.909ZM30.7559 289.541H52.8989C52.2726 286.991 50.9306 284.911 48.8729 283.301C46.8152 281.646 44.4667 280.818 41.8274 280.818C39.1434 280.818 36.7725 281.646 34.7148 283.301C32.7018 284.911 31.3822 286.991 30.7559 289.541ZM81.0862 309H66.6597C65.8992 309 65.2506 308.754 64.7138 308.262C64.2217 307.725 63.9757 307.076 63.9757 306.316C63.9757 305.556 64.2217 304.929 64.7138 304.437C65.2506 303.9 65.8992 303.632 66.6597 303.632H81.0862C82.294 303.632 83.3228 303.207 84.1728 302.357C85.0227 301.507 85.4477 300.478 85.4477 299.27C85.4477 298.063 85.0227 297.034 84.1728 296.184C83.3228 295.334 82.294 294.909 81.0862 294.909H73.7052C71.0212 294.909 68.7174 293.97 66.7939 292.091C64.9151 290.167 63.9757 287.863 63.9757 285.179C63.9757 282.495 64.9151 280.214 66.7939 278.335C68.7174 276.412 71.0212 275.45 73.7052 275.45H84.1728C84.9332 275.45 85.5595 275.718 86.0516 276.255C86.5884 276.747 86.8568 277.374 86.8568 278.134C86.8568 278.894 86.5884 279.543 86.0516 280.08C85.5595 280.572 84.9332 280.818 84.1728 280.818H73.7052C72.4974 280.818 71.4685 281.243 70.6186 282.093C69.7686 282.943 69.3437 283.972 69.3437 285.179C69.3437 286.387 69.7686 287.416 70.6186 288.266C71.4685 289.116 72.4974 289.541 73.7052 289.541H81.0862C83.7702 289.541 86.0516 290.503 87.9304 292.426C89.8539 294.305 90.8157 296.586 90.8157 299.27C90.8157 301.954 89.8539 304.258 87.9304 306.182C86.0516 308.061 83.7702 309 81.0862 309ZM103.549 280.818V298.935C103.549 300.232 103.996 301.351 104.891 302.29C105.83 303.185 106.949 303.632 108.246 303.632C109.543 303.632 110.662 303.162 111.601 302.223C112.093 301.731 112.697 301.485 113.413 301.485C114.173 301.485 114.822 301.731 115.359 302.223C115.895 302.76 116.164 303.408 116.164 304.169C116.164 304.885 115.895 305.511 115.359 306.048C113.39 308.016 111.019 309 108.246 309C105.472 309 103.102 308.016 101.133 306.048C99.1651 304.079 98.1809 301.708 98.1809 298.935V264.714C98.1809 263.954 98.427 263.327 98.919 262.835C99.4558 262.298 100.104 262.03 100.865 262.03C101.625 262.03 102.252 262.298 102.744 262.835C103.281 263.327 103.549 263.954 103.549 264.714V275.45H110.93C111.69 275.45 112.317 275.718 112.809 276.255C113.346 276.747 113.614 277.374 113.614 278.134C113.614 278.894 113.346 279.543 112.809 280.08C112.317 280.572 111.69 280.818 110.93 280.818H103.549ZM127.396 262.902C127.978 263.484 128.268 264.2 128.268 265.049C128.268 265.899 127.978 266.615 127.396 267.197C126.815 267.778 126.099 268.069 125.249 268.069C124.399 268.069 123.683 267.778 123.102 267.197C122.52 266.615 122.229 265.899 122.229 265.049C122.229 264.2 122.52 263.484 123.102 262.902C123.683 262.321 124.399 262.03 125.249 262.03C126.099 262.03 126.815 262.321 127.396 262.902ZM122.565 306.316V278.134C122.565 277.374 122.811 276.747 123.303 276.255C123.84 275.718 124.488 275.45 125.249 275.45C126.009 275.45 126.636 275.718 127.128 276.255C127.665 276.747 127.933 277.374 127.933 278.134V306.316C127.933 307.076 127.665 307.725 127.128 308.262C126.636 308.754 126.009 309 125.249 309C124.488 309 123.84 308.754 123.303 308.262C122.811 307.725 122.565 307.076 122.565 306.316ZM148.779 307.524L134.688 279.342C134.33 278.671 134.263 278 134.486 277.329C134.755 276.613 135.224 276.076 135.895 275.718C136.566 275.361 137.237 275.316 137.908 275.584C138.624 275.808 139.161 276.255 139.519 276.926L151.194 300.344L162.87 276.926C163.227 276.255 163.742 275.808 164.413 275.584C165.129 275.316 165.822 275.361 166.493 275.718C167.164 276.121 167.611 276.658 167.835 277.329C168.103 278 168.059 278.671 167.701 279.342L153.61 307.524C153.162 308.508 152.357 309 151.194 309C150.031 309 149.226 308.508 148.779 307.524ZM200.933 306.316V304.504C197.802 307.501 193.999 309 189.526 309C184.874 309 180.915 307.367 177.649 304.102C174.384 300.836 172.751 296.877 172.751 292.225C172.751 287.573 174.384 283.614 177.649 280.348C180.915 277.083 184.874 275.45 189.526 275.45C194.178 275.45 198.137 277.083 201.403 280.348C204.668 283.614 206.301 287.573 206.301 292.225V306.316C206.301 307.076 206.033 307.725 205.496 308.262C205.004 308.754 204.378 309 203.617 309C202.857 309 202.208 308.754 201.671 308.262C201.179 307.725 200.933 307.076 200.933 306.316ZM181.474 300.277C183.711 302.514 186.395 303.632 189.526 303.632C192.657 303.632 195.341 302.514 197.578 300.277C199.815 298.04 200.933 295.356 200.933 292.225C200.933 289.094 199.815 286.41 197.578 284.173C195.341 281.936 192.657 280.818 189.526 280.818C186.395 280.818 183.711 281.936 181.474 284.173C179.237 286.41 178.119 289.094 178.119 292.225C178.119 295.356 179.237 298.04 181.474 300.277ZM219.074 261.359V306.316C219.074 307.076 218.805 307.725 218.268 308.262C217.776 308.754 217.15 309 216.39 309C215.629 309 214.981 308.754 214.444 308.262C213.952 307.725 213.706 307.076 213.706 306.316V261.359C213.706 260.599 213.952 259.972 214.444 259.48C214.981 258.943 215.629 258.675 216.39 258.675C217.15 258.675 217.776 258.943 218.268 259.48C218.805 259.972 219.074 260.599 219.074 261.359Z" fill="white"/>
</svg>
