<svg width="216" height="250" viewBox="0 0 216 250" fill="none" xmlns="http://www.w3.org/2000/svg">
<path fill-rule="evenodd" clip-rule="evenodd" d="M0 0H8V121V129V250H0V129V121V0ZM23.7656 0V121H31.7656V0H39.7656V121V129V250H31.7656V129H23.7656V250H16.0156V129V121V0H23.7656ZM71.6016 104L69.2676 101.5L71.6016 99V0H63.8516V98H55.8516V0H47.8516V121V129V250H55.8516V152H63.8516V250H71.6016V151L69.2676 148.5L71.6016 146V129V121V104ZM63.8516 121V105H55.8516V121V129V145H63.8516V129V121ZM79.6875 0H87.6875V121V129V250H79.6875V129V121V0ZM103.703 121V8H111.703V99.5H106.703V105.5H119.703V0H95.7031V121V129V250H119.703V144.5H106.703V150.5H111.703V242H103.703V129H119.703V121H103.703ZM135.734 27.5V121H143.734V27.5H135.734ZM151.484 121V0H143.734V19.5H135.734V0H127.734V121V129V250H135.734V230.5H143.734V250H151.484V129V121ZM143.734 129H135.734V222.5H143.734V129ZM175.57 99.5V121V129V150.5L171.57 154.5L167.57 150.5V129V121V99.5L171.57 95.5L175.57 99.5ZM159.57 121V94.5L167.57 87.5V0H175.57V87.5L183.32 94.5V121V129V155.5L175.57 162.5V250H167.57V162.5L159.57 155.5V129V121ZM207.406 129H199.406V242H207.406V129ZM215.156 0V121V129V250H191.406V129V121V0H215.156ZM207.406 8H199.406V121H207.406V8Z" fill="white"/>
</svg>
