<svg width="189" height="181" viewBox="0 0 189 181" fill="none" xmlns="http://www.w3.org/2000/svg">
<g clip-path="url(#clip0_41_5)">
<path fill-rule="evenodd" clip-rule="evenodd" d="M0 0H7.00681V63.4485V67.6435V131.092H0V67.6435V63.4485V0ZM20.8151 0V63.4485H27.822V0H34.8288V63.4485V67.6435V131.092H27.822V67.6435H20.8151V131.092H14.0273V67.6435V63.4485V0H20.8151ZM62.7127 54.5343L60.6685 53.2234L62.7127 51.9124V0H55.9249V51.3881H48.9177V0H41.9109V63.4485V67.6435V131.092H48.9177V79.704H55.9249V131.092H62.7127V79.1796L60.6685 77.8687L62.7127 76.5578V67.6435V63.4485V54.5343ZM55.9249 63.4485V55.0587H48.9177V63.4485V67.6435V76.0334H55.9249V67.6435V63.4485ZM69.7949 0H76.8017V63.4485V67.6435V131.092H69.7949V67.6435V63.4485V0ZM90.8285 63.4485V4.19495H97.8353V52.1746H93.456V55.3208H104.842V0H83.8217V63.4485V67.6435V131.092H104.842V75.7712H93.456V78.9174H97.8353V126.897H90.8285V67.6435H104.842V63.4485H90.8285ZM118.883 14.4201V63.4485H125.89V14.4201H118.883ZM132.678 63.4485V0H125.89V10.2252H118.883V0H111.876V63.4485V67.6435V131.092H118.883V120.867H125.89V131.092H132.678V67.6435V63.4485ZM125.89 67.6435H118.883V116.672H125.89V67.6435ZM153.773 52.1746V63.4485V67.6435V78.9174L150.27 81.0149L146.767 78.9174V67.6435V63.4485V52.1746L150.27 50.0772L153.773 52.1746ZM139.76 63.4485V49.5528L146.767 45.8822V0H153.773V45.8822L160.561 49.5528V63.4485V67.6435V81.5393L153.773 85.2098V131.092H146.767V85.2098L139.76 81.5393V67.6435V63.4485ZM181.657 67.6435H174.65V126.897H181.657V67.6435ZM188.445 0V63.4485V67.6435V131.092H167.643V67.6435V63.4485V0H188.445ZM181.657 4.19495H174.65V63.4485H181.657V4.19495Z" fill="black"/>
<path d="M7.61075 157.48V178.761C7.61075 179.394 7.38021 179.936 6.91914 180.384C6.49652 180.794 5.95853 181 5.30538 181C4.65222 181 4.09505 180.794 3.63398 180.384C3.21136 179.936 3 179.394 3 178.761V147.4C3 145.086 3.84534 143.107 5.53592 141.464C7.22649 139.822 9.26296 139 11.6452 139C14.0273 139 16.0638 139.822 17.7543 141.464C18.2155 141.912 18.446 142.454 18.446 143.089C18.446 143.686 18.2155 144.208 17.7543 144.656C17.2933 145.066 16.7362 145.272 16.083 145.272C15.4682 145.272 14.9495 145.066 14.5269 144.656C13.72 143.872 12.7594 143.481 11.6452 143.481C10.5309 143.481 9.57031 143.872 8.76343 144.656C7.995 145.402 7.61075 146.318 7.61075 147.4V153H16.1406C16.7938 153 17.3318 153.224 17.7543 153.672C18.2155 154.082 18.446 154.606 18.446 155.241C18.446 155.875 18.2155 156.416 17.7543 156.864C17.3318 157.275 16.7938 157.48 16.1406 157.48H7.61075ZM47.8603 169.24H26.2473C26.7852 171.368 27.9188 173.122 29.6478 174.504C31.4152 175.848 33.4516 176.52 35.757 176.52C38.4466 176.52 40.752 175.586 42.6731 173.72C43.1342 173.31 43.6721 173.104 44.2868 173.104C44.94 173.104 45.4972 173.31 45.9583 173.72C46.3809 174.168 46.5922 174.71 46.5922 175.344C46.5922 175.941 46.3809 176.464 45.9583 176.912C43.0381 179.638 39.6377 181 35.757 181C31.761 181 28.3606 179.638 25.5557 176.912C22.7509 174.186 21.3485 170.883 21.3485 167.001C21.3485 163.117 22.7509 159.814 25.5557 157.088C28.3606 154.362 31.761 153 35.757 153C39.753 153 43.1534 154.362 45.9583 157.088C48.7632 159.814 50.1656 163.117 50.1656 167.001C50.1656 167.634 49.935 168.176 49.474 168.624C49.0513 169.035 48.5133 169.24 47.8603 169.24ZM26.2473 164.76H45.2667C44.7288 162.632 43.5761 160.896 41.8086 159.552C40.0411 158.17 38.0239 157.48 35.757 157.48C33.4516 157.48 31.4152 158.17 29.6478 159.552C27.9188 160.896 26.7852 162.632 26.2473 164.76ZM69.4775 181H57.0862C56.4333 181 55.8759 180.794 55.4148 180.384C54.9924 179.936 54.7808 179.394 54.7808 178.761C54.7808 178.126 54.9924 177.602 55.4148 177.192C55.8759 176.744 56.4333 176.52 57.0862 176.52H69.4775C70.515 176.52 71.3984 176.166 72.1287 175.456C72.8591 174.747 73.2238 173.889 73.2238 172.881C73.2238 171.872 72.8591 171.014 72.1287 170.304C71.3984 169.594 70.515 169.24 69.4775 169.24H63.1378C60.8325 169.24 58.8539 168.456 57.2015 166.888C55.5877 165.283 54.7808 163.36 54.7808 161.121C54.7808 158.88 55.5877 156.977 57.2015 155.408C58.8539 153.803 60.8325 153 63.1378 153H72.1287C72.7817 153 73.3202 153.224 73.7426 153.672C74.2036 154.082 74.4342 154.606 74.4342 155.241C74.4342 155.875 74.2036 156.416 73.7426 156.864C73.3202 157.275 72.7817 157.48 72.1287 157.48H63.1378C62.1004 157.48 61.2169 157.834 60.4867 158.544C59.7563 159.254 59.3915 160.112 59.3915 161.121C59.3915 162.129 59.7563 162.986 60.4867 163.696C61.2169 164.406 62.1004 164.76 63.1378 164.76H69.4775C71.7829 164.76 73.7426 165.563 75.3563 167.168C77.0088 168.736 77.8346 170.64 77.8346 172.881C77.8346 175.12 77.0088 177.043 75.3563 178.648C73.7426 180.216 71.7829 181 69.4775 181ZM88.7716 157.48V172.6C88.7716 173.683 89.156 174.617 89.9242 175.4C90.7312 176.146 91.692 176.52 92.8059 176.52C93.9199 176.52 94.8808 176.128 95.6877 175.344C96.1101 174.934 96.6287 174.728 97.2438 174.728C97.8967 174.728 98.4541 174.934 98.9152 175.344C99.3763 175.792 99.6068 176.334 99.6068 176.968C99.6068 177.566 99.3763 178.088 98.9152 178.536C97.2249 180.179 95.1878 181 92.8059 181C90.424 181 88.387 180.179 86.6967 178.536C85.0064 176.894 84.1609 174.914 84.1609 172.6V144.041C84.1609 143.406 84.3724 142.883 84.7948 142.472C85.2559 142.025 85.8133 141.8 86.4662 141.8C87.1191 141.8 87.6576 142.025 88.08 142.472C88.541 142.883 88.7716 143.406 88.7716 144.041V153H95.1113C95.7642 153 96.3028 153.224 96.7251 153.672C97.1862 154.082 97.4168 154.606 97.4168 155.241C97.4168 155.875 97.1862 156.416 96.7251 156.864C96.3028 157.275 95.7642 157.48 95.1113 157.48H88.7716ZM109.254 142.528C109.754 143.014 110.004 143.61 110.004 144.32C110.004 145.03 109.754 145.627 109.254 146.112C108.755 146.598 108.14 146.841 107.411 146.841C106.681 146.841 106.066 146.598 105.566 146.112C105.066 145.627 104.817 145.03 104.817 144.32C104.817 143.61 105.066 143.014 105.566 142.528C106.066 142.043 106.681 141.8 107.411 141.8C108.14 141.8 108.755 142.043 109.254 142.528ZM105.105 178.761V155.241C105.105 154.606 105.317 154.082 105.739 153.672C106.201 153.224 106.757 153 107.411 153C108.064 153 108.602 153.224 109.024 153.672C109.486 154.082 109.717 154.606 109.717 155.241V178.761C109.717 179.394 109.486 179.936 109.024 180.384C108.602 180.794 108.064 181 107.411 181C106.757 181 106.201 180.794 105.739 180.384C105.317 179.936 105.105 179.394 105.105 178.761ZM127.62 179.768L115.518 156.249C115.211 155.688 115.153 155.128 115.345 154.568C115.576 153.971 115.979 153.523 116.555 153.224C117.132 152.926 117.708 152.888 118.284 153.113C118.899 153.298 119.36 153.672 119.667 154.232L129.696 173.776L139.724 154.232C140.031 153.672 140.473 153.298 141.05 153.113C141.665 152.888 142.259 152.926 142.837 153.224C143.413 153.56 143.797 154.008 143.989 154.568C144.219 155.128 144.18 155.688 143.873 156.249L131.771 179.768C131.385 180.59 130.694 181 129.696 181C128.697 181 128.006 180.59 127.62 179.768ZM172.418 178.761V177.248C169.727 179.749 166.463 181 162.62 181C158.625 181 155.224 179.638 152.418 176.912C149.614 174.186 148.211 170.883 148.211 167.001C148.211 163.117 149.614 159.814 152.418 157.088C155.224 154.362 158.625 153 162.62 153C166.616 153 170.016 154.362 172.821 157.088C175.627 159.814 177.029 163.117 177.029 167.001V178.761C177.029 179.394 176.798 179.936 176.337 180.384C175.914 180.794 175.376 181 174.723 181C174.071 181 173.513 180.794 173.052 180.384C172.629 179.936 172.418 179.394 172.418 178.761ZM155.703 173.72C157.625 175.586 159.93 176.52 162.62 176.52C165.31 176.52 167.615 175.586 169.536 173.72C171.457 171.854 172.418 169.614 172.418 167.001C172.418 164.386 171.457 162.147 169.536 160.28C167.615 158.414 165.31 157.48 162.62 157.48C159.93 157.48 157.625 158.414 155.703 160.28C153.783 162.147 152.822 164.386 152.822 167.001C152.822 169.614 153.783 171.854 155.703 173.72ZM188 141.24V178.761C188 179.394 187.769 179.936 187.309 180.384C186.885 180.794 186.347 181 185.695 181C185.041 181 184.484 180.794 184.023 180.384C183.6 179.936 183.389 179.394 183.389 178.761V141.24C183.389 140.606 183.6 140.083 184.023 139.673C184.484 139.225 185.041 139 185.695 139C186.347 139 186.885 139.225 187.309 139.673C187.769 140.083 188 140.606 188 141.24Z" fill="black"/>
</g>
<defs>
<clipPath id="clip0_41_5">
<rect width="189" height="181" fill="white"/>
</clipPath>
</defs>
</svg>
