<svg width="508" height="135" viewBox="0 0 508 135" fill="none" xmlns="http://www.w3.org/2000/svg">
<g filter="url(#filter0_d_192_516)">
<path d="M53.2438 30.88H77.8838V40.54H53.2438V30.88ZM53.2438 69.38H77.8838V79.04H53.2438V69.38ZM99.1638 0.359995H110.364V126.92H99.1638V0.359995ZM74.3838 3.01999H85.3038V120.62H74.3838V3.01999ZM31.2638 10.86C47.6438 10.86 58.2838 27.8 58.2838 54.96C58.2838 82.12 47.6438 99.06 31.2638 99.06C14.8838 99.06 4.38375 82.12 4.38375 54.96C4.38375 27.8 14.8838 10.86 31.2638 10.86ZM31.2638 21.64C21.3238 21.64 14.8838 34.52 14.8838 54.96C14.8838 75.4 21.3238 88.28 31.2638 88.28C41.3438 88.28 47.6438 75.4 47.6438 54.96C47.6438 34.52 41.3438 21.64 31.2638 21.64ZM182.873 0.919996H192.673V5.54C192.673 27.1 168.033 41.52 141.713 44.88L137.793 35.92C160.753 33.4 182.873 21.22 182.873 5.54V0.919996ZM184.833 0.919996H194.633V5.54C194.633 21.22 216.753 33.4 239.713 35.92L235.653 44.88C209.473 41.52 184.833 27.1 184.833 5.54V0.919996ZM182.873 60H194.353V79.32H182.873V60ZM131.493 53.14H245.873V62.52H131.493V53.14ZM145.353 74.98H231.313V103.82H157.113V119.08H145.633V95.42H219.833V83.94H145.353V74.98ZM145.633 116.42H235.093V125.52H145.633V116.42ZM345.962 0.219997H357.722V126.92H345.962V0.219997ZM354.502 51.6H377.882V61.26H354.502V51.6ZM313.622 13.94H324.962C324.962 49.92 308.442 82.4 267.562 102.98L261.122 94.02C296.122 76.24 313.622 49.22 313.622 15.76V13.94ZM267.002 13.94H319.642V23.46H267.002V13.94ZM389.211 53.14H503.591V62.66H389.211V53.14ZM404.331 33.54H490.011V42.92H404.331V33.54ZM404.331 4.41999H488.611V13.94H415.811V41.1H404.331V4.41999ZM402.931 73.58H488.891V103.4H414.691V119.36H403.211V94.72H477.411V82.68H402.931V73.58ZM403.211 116.28H492.671V125.52H403.211V116.28Z" fill="#B900FF" fill-opacity="0.3" shape-rendering="crispEdges"/>
</g>
<defs>
<filter id="filter0_d_192_516" x="0.383728" y="0.219971" width="507.207" height="134.7" filterUnits="userSpaceOnUse" color-interpolation-filters="sRGB">
<feFlood flood-opacity="0" result="BackgroundImageFix"/>
<feColorMatrix in="SourceAlpha" type="matrix" values="0 0 0 0 0 0 0 0 0 0 0 0 0 0 0 0 0 0 127 0" result="hardAlpha"/>
<feOffset dy="4"/>
<feGaussianBlur stdDeviation="2"/>
<feComposite in2="hardAlpha" operator="out"/>
<feColorMatrix type="matrix" values="0 0 0 0 0.133333 0 0 0 0 0.133333 0 0 0 0 0.133333 0 0 0 0.25 0"/>
<feBlend mode="normal" in2="BackgroundImageFix" result="effect1_dropShadow_192_516"/>
<feBlend mode="normal" in="SourceGraphic" in2="effect1_dropShadow_192_516" result="shape"/>
</filter>
</defs>
</svg>
